<svg width="25" height="25" viewBox="0 0 25 25" fill="none" xmlns="http://www.w3.org/2000/svg">
<title>Cross with background</title>
<path d="M25 12.5C25 19.4036 19.4036 25 12.5 25C5.59644 25 0 19.4036 0 12.5C0 5.59644 5.59644 0 12.5 0C19.4036 0 25 5.59644 25 12.5Z" fill="#33333E"/>
<path d="M6.70711 9.53554C6.31658 9.14501 6.31658 8.51185 6.70711 8.12132L8.12132 6.70711C8.51184 6.31659 9.14501 6.31659 9.53553 6.70711L18.7279 15.8995C19.1184 16.29 19.1184 16.9232 18.7279 17.3137L17.3137 18.7279C16.9232 19.1184 16.29 19.1184 15.8995 18.7279L6.70711 9.53554Z" fill="white"/>
<path d="M15.8995 6.70711C16.29 6.31658 16.9231 6.31658 17.3137 6.70711L18.7279 8.12132C19.1184 8.51184 19.1184 9.14501 18.7279 9.53553L9.5355 18.7279C9.14498 19.1184 8.51181 19.1184 8.12129 18.7279L6.70707 17.3137C6.31655 16.9232 6.31655 16.29 6.70707 15.8995L15.8995 6.70711Z" fill="white"/>
</svg>
